<svg width="257" height="16" viewBox="0 0 257 16" fill="none" xmlns="http://www.w3.org/2000/svg">
<path d="M0.88 15V0.999999H3.48V15H0.88ZM7.26672 15V0.999999H9.40672L18.1867 11.78H17.1267V0.999999H19.7067V15H17.5667L8.78672 4.22H9.84672V15H7.26672ZM25.8381 7.44H32.8181V9.64H25.8381V7.44ZM26.0581 15H23.4581V0.999999H33.6781V3.18H26.0581V15ZM36.1925 15V0.999999H38.7925V15H36.1925ZM42.5792 15V0.999999H44.7192L53.4992 11.78H52.4392V0.999999H55.0192V15H52.8792L44.0992 4.22H45.1592V15H42.5792ZM58.7706 15V0.999999H61.3706V15H58.7706ZM67.9973 15V3.2H63.3573V0.999999H75.2373V3.2H70.5973V15H67.9973ZM80.4138 15V9.46L80.9938 11.06L74.9137 0.999999H77.6938L82.5738 9.1H81.0138L85.9338 0.999999H88.4938L82.4138 11.06L83.0138 9.46V15H80.4138ZM95.7238 15V0.999999H97.8638L103.984 11.22H102.864L108.884 0.999999H111.024L111.044 15H108.584L108.564 4.86H109.084L103.964 13.4H102.804L97.6038 4.86H98.2038V15H95.7238ZM112.845 15L119.145 0.999999H121.705L128.025 15H125.305L119.885 2.38H120.925L115.525 15H112.845ZM115.745 11.76L116.445 9.72H124.005L124.705 11.76H115.745ZM129.806 15V0.999999H135.566C136.806 0.999999 137.866 1.2 138.746 1.6C139.639 2 140.326 2.57333 140.806 3.32C141.286 4.06667 141.526 4.95333 141.526 5.98C141.526 7.00667 141.286 7.89333 140.806 8.64C140.326 9.37333 139.639 9.94 138.746 10.34C137.866 10.7267 136.806 10.92 135.566 10.92H131.246L132.406 9.74V15H129.806ZM138.966 15L135.426 9.92H138.206L141.766 15H138.966ZM132.406 10.02L131.246 8.78H135.446C136.592 8.78 137.452 8.53333 138.026 8.04C138.612 7.54667 138.906 6.86 138.906 5.98C138.906 5.08667 138.612 4.4 138.026 3.92C137.452 3.44 136.592 3.2 135.446 3.2H131.246L132.406 1.92V10.02ZM146.755 11.7L146.615 8.62L153.955 0.999999H156.875L150.775 7.48L149.335 9.06L146.755 11.7ZM144.435 15V0.999999H147.035V15H144.435ZM154.195 15L148.835 8.62L150.555 6.72L157.235 15H154.195ZM161.405 6.82H168.365V8.96H161.405V6.82ZM161.605 12.82H169.505V15H159.005V0.999999H169.225V3.18H161.605V12.82ZM175.243 15V3.2H170.603V0.999999H182.483V3.2H177.843V15H175.243ZM189.962 15V0.999999H195.722C196.962 0.999999 198.022 1.2 198.902 1.6C199.795 2 200.482 2.57333 200.962 3.32C201.442 4.06667 201.682 4.95333 201.682 5.98C201.682 7.00667 201.442 7.89333 200.962 8.64C200.482 9.38667 199.795 9.96 198.902 10.36C198.022 10.76 196.962 10.96 195.722 10.96H191.402L192.562 9.74V15H189.962ZM192.562 10.02L191.402 8.76H195.602C196.749 8.76 197.609 8.52 198.182 8.04C198.769 7.54667 199.062 6.86 199.062 5.98C199.062 5.08667 198.769 4.4 198.182 3.92C197.609 3.44 196.749 3.2 195.602 3.2H191.402L192.562 1.92V10.02ZM204.278 15V0.999999H206.878V12.8H214.198V15H204.278ZM214.291 15L220.591 0.999999H223.151L229.471 15H226.751L221.331 2.38H222.371L216.971 15H214.291ZM217.191 11.76L217.891 9.72H225.451L226.151 11.76H217.191ZM237.536 15.2C236.469 15.2 235.476 15.0267 234.556 14.68C233.649 14.32 232.856 13.82 232.176 13.18C231.509 12.5267 230.989 11.76 230.616 10.88C230.242 10 230.056 9.04 230.056 8C230.056 6.96 230.242 6 230.616 5.12C230.989 4.24 231.516 3.48 232.196 2.84C232.876 2.18667 233.669 1.68667 234.576 1.34C235.482 0.979999 236.476 0.799999 237.556 0.799999C238.702 0.799999 239.749 0.999999 240.696 1.4C241.642 1.78667 242.442 2.36667 243.096 3.14L241.416 4.72C240.909 4.17333 240.342 3.76667 239.716 3.5C239.089 3.22 238.409 3.08 237.676 3.08C236.942 3.08 236.269 3.2 235.656 3.44C235.056 3.68 234.529 4.02 234.076 4.46C233.636 4.9 233.289 5.42 233.036 6.02C232.796 6.62 232.676 7.28 232.676 8C232.676 8.72 232.796 9.38 233.036 9.98C233.289 10.58 233.636 11.1 234.076 11.54C234.529 11.98 235.056 12.32 235.656 12.56C236.269 12.8 236.942 12.92 237.676 12.92C238.409 12.92 239.089 12.7867 239.716 12.52C240.342 12.24 240.909 11.82 241.416 11.26L243.096 12.86C242.442 13.62 241.642 14.2 240.696 14.6C239.749 15 238.696 15.2 237.536 15.2ZM247.987 6.82H254.947V8.96H247.987V6.82ZM248.187 12.82H256.087V15H245.587V0.999999H255.807V3.18H248.187V12.82Z" fill="white"/>
</svg>
